<svg
  width="1920"
  height="1106"
  viewBox="0 0 1920 1106"
  fill="none"
  xmlns="http://www.w3.org/2000/svg"
>
<g>
<path
      d="M-37.4126 164.508C280.966 24.1515 213.551 775.075 449.214 893.973C735.165 1038.24 750.295 202.377 902.605 387.543C1100.52 628.141 1107.92 600.584 1406.31 420.73C1704.68 240.895 1956.43 590.128 1956.43 590.128"
      stroke="white"
      stroke-width="2"
      stroke-miterlimit="10"
    />
<path
      d="M-35.3955 198.006C293.381 71.9674 233.719 753.463 465.178 876.562C755.995 1031.23 772.031 206.252 925.458 389.804C1122.31 626.134 1120.46 627.7 1417.3 444.929C1715.34 261.089 1955.2 597.364 1955.2 597.364"
      stroke="white"
      stroke-width="1.94"
      stroke-miterlimit="10"
    />
<path
      d="M-33.3782 231.504C305.813 119.782 253.817 732.088 481.142 859.133C776.804 1024.4 793.765 210.11 948.31 392.048C1144.1 624.127 1132.97 654.781 1428.31 469.127C1726.02 281.299 1953.99 604.598 1953.99 604.598"
      stroke="white"
      stroke-width="1.88"
      stroke-miterlimit="10"
    />
<path
      d="M-31.3598 265.02C318.229 167.616 273.86 710.93 497.107 841.722C797.612 1017.78 815.952 213.614 971.164 394.309C1166.46 621.667 1145.49 681.899 1439.31 493.327C1736.7 301.509 1952.76 611.834 1952.76 611.834"
      stroke="white"
      stroke-width="1.82"
      stroke-miterlimit="10"
    />
<path
      d="M-29.3425 298.518C330.661 215.431 293.814 689.992 513.072 824.311C818.365 1011.36 837.822 217.39 994.035 396.568C1188.42 619.54 1158.05 709.013 1450.33 517.524C1747.4 321.7 1951.57 619.068 1951.57 619.068"
      stroke="white"
      stroke-width="1.76"
      stroke-miterlimit="10"
    />
<path
      d="M-27.3254 332.016C343.075 263.247 313.692 669.22 529.035 806.882C839.059 1005.1 859.656 221.152 1016.89 398.829C1210.33 617.435 1170.57 736.13 1461.33 541.723C1758.06 341.912 1950.34 626.286 1950.34 626.286"
      stroke="white"
      stroke-width="1.7"
      stroke-miterlimit="10"
    />
<path
      d="M-25.3258 365.515C355.49 311.063 333.477 648.615 544.982 789.473C859.664 999.07 881.473 224.933 1039.72 401.092C1232.2 615.35 1183.07 763.249 1472.32 565.923C1768.73 362.123 1949.11 633.522 1949.11 633.522"
      stroke="white"
      stroke-width="1.64"
      stroke-miterlimit="10"
    />
<path
      d="M-23.3073 399.03C367.905 358.896 353.204 628.174 560.947 772.061C880.211 993.199 903.292 228.73 1062.58 403.352C1254.08 613.283 1195.6 790.364 1483.31 590.122C1779.39 382.317 1947.88 640.757 1947.88 640.757"
      stroke="white"
      stroke-width="1.58"
      stroke-miterlimit="10"
    />
<path
      d="M-21.2902 432.528C380.338 406.711 372.85 607.846 576.912 754.65C900.632 987.534 925.077 232.549 1085.43 405.613C1275.93 611.217 1208.54 818.071 1494.32 614.321C1790.51 403.15 1946.67 647.992 1946.67 647.992"
      stroke="white"
      stroke-width="1.52"
      stroke-miterlimit="10"
    />
<path
      d="M-19.2731 466.026C392.752 454.527 392.418 587.649 592.875 737.221C920.957 982.019 946.86 236.351 1108.28 407.857C1297.75 609.155 1221.09 845.185 1505.31 638.503C1801.21 423.359 1945.44 655.21 1945.44 655.21"
      stroke="white"
      stroke-width="1.46"
      stroke-miterlimit="10"
    />
<path
      d="M-17.2559 499.524C405.184 502.341 411.905 567.564 608.839 719.792C941.136 976.674 968.627 240.17 1131.15 410.098C1319.58 607.127 1233.65 872.281 1516.34 662.681C1811.92 443.548 1944.25 662.425 1944.25 662.425"
      stroke="white"
      stroke-width="1.4"
      stroke-miterlimit="10"
    />
<path
      d="M-15.2373 533.039C417.618 550.173 431.313 547.592 624.805 702.398C961.19 971.535 990.381 244.044 1154.01 412.377C1341.37 605.137 1246.16 899.398 1527.35 686.897C1822.6 463.758 1943.04 669.677 1943.04 669.677"
      stroke="white"
      stroke-width="1.35"
      stroke-miterlimit="10"
    />
<path
      d="M-13.2202 566.537C430.032 597.989 450.637 527.68 640.769 684.97C981.093 966.532 1012.12 247.903 1176.86 414.638C1363.15 603.149 1258.68 926.498 1538.35 711.096C1833.26 483.952 1941.81 676.913 1941.81 676.913"
      stroke="white"
      stroke-width="1.29"
      stroke-miterlimit="10"
    />
<path
      d="M-11.2031 600.035C442.464 645.805 469.895 507.845 656.734 667.559C1000.85 961.7 1033.82 251.799 1199.72 416.899C1384.89 601.182 1271.2 953.58 1549.36 735.313C1843.94 504.145 1940.61 684.164 1940.61 684.164"
      stroke="white"
      stroke-width="1.23"
      stroke-miterlimit="10"
    />
<path
      d="M-9.20348 633.535C454.86 693.604 489.053 488.088 672.68 650.131C1020.42 957.025 1055.5 255.697 1222.55 419.144C1406.61 599.233 1283.26 980.129 1560.33 759.496C1854.11 523.738 1939.37 691.365 1939.37 691.365"
      stroke="white"
      stroke-width="1.17"
      stroke-miterlimit="10"
    />
<path
      d="M-7.18639 667.033C467.292 741.419 508.161 468.371 688.643 632.703C1039.83 952.469 1077.17 259.613 1245.4 421.387C1428.32 597.286 1295.78 1007.23 1571.34 783.676C1864.79 543.93 1938.15 698.582 1938.15 698.582"
      stroke="white"
      stroke-width="1.11"
      stroke-miterlimit="10"
    />
<path
      d="M-5.16787 700.548C479.707 789.253 527.203 448.73 704.609 615.309C1059.07 948.122 1098.84 263.565 1268.26 423.666C1450.01 595.41 1308.32 1034.34 1582.33 807.894C1875.46 564.159 1936.93 705.836 1936.93 705.836"
      stroke="white"
      stroke-width="1.05"
      stroke-miterlimit="10"
    />
<path
      d="M-3.15065 734.046C492.14 837.067 546.159 429.113 720.573 597.88C1078.11 943.861 1120.48 267.537 1291.13 425.907C1471.71 593.517 1320.85 1061.44 1593.36 832.073C1886.17 584.331 1935.73 713.051 1935.73 713.051"
      stroke="white"
      stroke-width="0.99"
      stroke-miterlimit="10"
    />
<path
      d="M-1.13352 767.544C504.554 884.883 565.047 409.537 736.537 580.468C1096.99 939.773 1142.1 271.529 1313.98 428.186C1493.37 591.662 1333.37 1088.58 1604.36 856.289C1896.83 604.56 1934.5 720.304 1934.5 720.304"
      stroke="white"
      stroke-width="0.93"
      stroke-miterlimit="10"
    />
<path
      d="M0.88366 801.041C516.986 932.697 583.883 389.983 752.501 563.04C1115.65 935.773 1163.7 275.539 1336.83 430.429C1515.01 589.826 1345.91 1115.67 1615.37 880.47C1907.51 624.753 1933.29 727.521 1933.29 727.521"
      stroke="white"
      stroke-width="0.87"
      stroke-miterlimit="10"
    />
<path
      d="M2.90228 834.557C529.402 980.531 602.65 370.452 768.467 545.646C1134.12 931.948 1185.1 279.815 1359.69 432.708C1536.44 588.238 1358.43 1142.81 1626.36 904.687C1918.18 644.964 1932.06 734.775 1932.06 734.775"
      stroke="white"
      stroke-width="0.81"
      stroke-miterlimit="10"
    />
<path
      d="M4.91942 868.055C541.834 1028.35 621.347 350.945 784.431 528.218C1152.4 928.209 1206.85 283.672 1382.54 434.951C1558.25 586.229 1370.94 1169.91 1637.37 928.868C1928.86 665.157 1930.85 741.992 1930.85 741.992"
      stroke="white"
      stroke-width="0.75"
      stroke-miterlimit="10"
    />
</g>
</svg>
